<?xml version="1.0" encoding="utf-8"?>
<!-- Generator: Adobe Illustrator 16.0.0, SVG Export Plug-In . SVG Version: 6.00 Build 0)  -->
<!DOCTYPE svg PUBLIC "-//W3C//DTD SVG 1.1//EN" "http://www.w3.org/Graphics/SVG/1.1/DTD/svg11.dtd">
<svg version="1.1" id="Layer_1" xmlns="http://www.w3.org/2000/svg" xmlns:xlink="http://www.w3.org/1999/xlink" x="0px" y="0px"
	 width="45px" height="42.882px" viewBox="0 0 45 42.882" enable-background="new 0 0 45 42.882" xml:space="preserve">
<g>
	<path fill-rule="evenodd" clip-rule="evenodd" fill="#FFFFFF" d="M25.178,17.915c0.104-0.079,0.147-0.174,0.208-0.253
		c0.313-0.406,0.609-0.829,0.945-1.216c1.426-1.637,3.219-2.631,5.358-2.999c1.834-0.314,3.656-0.241,5.45,0.254
		c2.759,0.764,4.791,2.438,6.119,4.972c0.607,1.157,0.998,2.388,1.251,3.666c0.247,1.265,0.356,2.542,0.355,3.831
		c-0.001,5.42,0,10.839-0.001,16.257c0,0.136,0.019,0.277-0.021,0.397c-0.026,0.022-0.034,0.03-0.044,0.037
		c-0.009,0.004-0.021,0.011-0.033,0.011c-3.106,0.003-6.212,0.007-9.319,0.01c-0.046,0-0.091-0.011-0.157-0.019
		c-0.012-0.067-0.03-0.132-0.035-0.197c-0.006-0.104-0.002-0.211-0.002-0.316c0-4.998,0-10,0-14.997c0-0.89-0.079-1.771-0.281-2.64
		c-0.12-0.524-0.292-1.032-0.541-1.516c-0.752-1.454-1.962-2.204-3.582-2.315c-0.729-0.049-1.447,0.004-2.143,0.245
		c-1.002,0.344-1.805,0.962-2.441,1.802c-0.325,0.433-0.586,0.902-0.792,1.401c-0.191,0.456-0.272,0.94-0.304,1.432
		c-0.023,0.348-0.03,0.7-0.031,1.051c-0.002,5.194-0.002,10.393-0.002,15.589c0,0.152,0.025,0.303-0.04,0.46
		c-0.062,0.006-0.119,0.021-0.175,0.021c-3.117,0-6.234,0-9.326,0c-0.109-0.097-0.084-0.196-0.084-0.286
		c0.001-0.617,0.003-1.237,0.006-1.856c0.013-2.431,0.031-4.858,0.036-7.289c0.009-4.33,0.014-8.664,0.014-12.998
		c0-1.882-0.018-3.761-0.026-5.641c-0.002-0.269,0-0.536,0-0.826c0.049-0.011,0.112-0.03,0.178-0.037
		c0.069-0.006,0.141-0.002,0.21-0.002c2.932,0,5.863,0,8.795,0c0.115,0,0.23,0,0.344,0c0.097,0.128,0.064,0.26,0.064,0.383
		c0.004,1.075,0,2.15,0.003,3.225C25.135,17.664,25.113,17.781,25.178,17.915z"/>
	<path fill-rule="evenodd" clip-rule="evenodd" fill="#FFFFFF" d="M0.603,13.948c3.161,0,6.29,0,9.418,0.001
		c0.045,0,0.088,0.013,0.133,0.021c0.014,0.044,0.034,0.075,0.034,0.106c0.004,9.542,0.004,19.086,0.004,28.625
		c0,0.043-0.016,0.088-0.026,0.13c-0.123,0.084-0.255,0.051-0.38,0.051c-1.214,0.001-2.429,0-3.645,0c-1.716,0-3.432,0.001-5.149,0
		c-0.125,0-0.255,0.016-0.365-0.024c-0.021-0.036-0.041-0.056-0.041-0.076c-0.004-9.552-0.007-19.105-0.01-28.658
		C0.578,14.079,0.591,14.035,0.603,13.948z"/>
	<path fill-rule="evenodd" clip-rule="evenodd" fill="#FFFFFF" d="M10.833,4.888c-0.021,2.261-1.2,3.957-3.088,4.688
		c-1.453,0.561-2.944,0.608-4.419,0.098C1.59,9.073,0.506,7.856,0.12,6.054c-0.245-1.143-0.116-2.256,0.407-3.305
		C1.15,1.5,2.172,0.71,3.486,0.292c0.89-0.282,1.804-0.352,2.733-0.246c0.572,0.063,1.126,0.189,1.654,0.42
		c1.558,0.681,2.495,1.871,2.846,3.527C10.792,4.333,10.809,4.686,10.833,4.888z"/>
</g>
</svg>
