<?xml version="1.0" encoding="utf-8"?>
<!-- Generator: Adobe Illustrator 16.0.0, SVG Export Plug-In . SVG Version: 6.00 Build 0)  -->
<!DOCTYPE svg PUBLIC "-//W3C//DTD SVG 1.1//EN" "http://www.w3.org/Graphics/SVG/1.1/DTD/svg11.dtd">
<svg version="1.1" id="Layer_1" xmlns="http://www.w3.org/2000/svg" xmlns:xlink="http://www.w3.org/1999/xlink" x="0px" y="0px"
	 width="45px" height="42.882px" viewBox="0 0 45 42.882" enable-background="new 0 0 45 42.882" xml:space="preserve">
<path fill-rule="evenodd" clip-rule="evenodd" fill="#FFFFFF" d="M274-224.059c-1.783-0.246-3.565-0.706-5.349-0.706
	c-163.435-0.033-326.868-0.033-490.303,0c-1.783,0-3.565,0.46-5.348,0.706c0.167-0.667,0.229-1.851,0.519-1.908
	c1.122-0.225,2.315-0.092,3.481-0.092c164.333,0,328.667-0.006,493,0.103C271.253-225.956,274.314-228.022,274-224.059z"/>
<g id="Notepad_-_Grey">
	<path fill="#FFFFFF" d="M16.749,6.68V5.31h3.865V6.68c0,0.728,0.596,1.323,1.323,1.323h0.331c0.729,0,1.323-0.596,1.323-1.323V5.31
		h3.866V6.68c0,0.728,0.596,1.323,1.323,1.323h0.33c0.728,0,1.323-0.596,1.323-1.323V5.31h0.789l2.517,2.473v6.456h2.646V6.671
		l-4.083-4.007h-1.869V1.323C30.434,0.596,29.838,0,29.11,0h-0.33c-0.728,0-1.323,0.596-1.323,1.323v1.341h-3.866V1.323
		C23.591,0.596,22.996,0,22.268,0h-0.331c-0.728,0-1.323,0.596-1.323,1.323v1.341h-3.865V1.323C16.749,0.596,16.152,0,15.426,0
		h-0.331c-0.729,0-1.323,0.596-1.323,1.323v1.341H9.905V1.323C9.905,0.596,9.31,0,8.583,0H8.252C7.524,0,6.929,0.596,6.929,1.323
		v1.341H0.667v39.668h15.187l0.22-0.881l0.442-1.765H3.313V5.31h3.616V6.68c0,0.728,0.596,1.323,1.323,1.323h0.331
		c0.727,0,1.323-0.596,1.323-1.323V5.31h3.867V6.68c0,0.728,0.594,1.323,1.323,1.323h0.331C16.152,8.003,16.749,7.408,16.749,6.68z"
		/>
	<path fill="#FFFFFF" d="M43.716,20.112l-4.235-4.236c-1.029-1.029-2.695-1.047-3.701-0.042c-0.001,0.001-0.003,0.002-0.003,0.002
		h-0.001l-15.441,15.44l-0.311,0.308l-2.672,10.671l10.659-2.674l0.996-1.013l0,0l14.75-14.753l-0.001-0.001
		c0.001,0,0.002-0.002,0.002-0.002C44.763,22.806,44.745,21.141,43.716,20.112z M21.119,32.662l5.826,5.823l-5.473,1.372
		l-1.708-1.798L21.119,32.662z M28.017,34.88l-3.305-3.305l11.063-11.063l3.304,3.303L28.017,34.88z"/>
	<rect x="6" y="33.789" fill="#FFFFFF" width="10.917" height="2.402"/>
	<rect x="6" y="28.192" fill="#FFFFFF" width="13.346" height="2.401"/>
	<rect x="6" y="22.594" fill="#FFFFFF" width="19.542" height="2.402"/>
</g>
<g id="User_-_Grey">
	<g>
		<path fill="#FFFFFF" d="M11.05,9.388c1.547,0,2.801,1.254,2.801,2.801c0,1.546-1.253,2.8-2.801,2.8
			c-1.546,0-2.799-1.254-2.799-2.8C8.251,10.642,9.503,9.388,11.05,9.388"/>
		<path fill="#FFFFFF" d="M13.338,14.744c-0.608,0.544-1.409,0.876-2.288,0.876c-0.878,0-1.679-0.332-2.286-0.876
			c-1.631,0.867-2.75,2.63-2.763,4.668h10.101C16.088,17.374,14.968,15.61,13.338,14.744z"/>
	</g>
</g>
</svg>
