<?xml version="1.0" encoding="utf-8"?>
<!-- Generator: Adobe Illustrator 16.0.0, SVG Export Plug-In . SVG Version: 6.00 Build 0)  -->
<!DOCTYPE svg PUBLIC "-//W3C//DTD SVG 1.1//EN" "http://www.w3.org/Graphics/SVG/1.1/DTD/svg11.dtd">
<svg version="1.1" id="Layer_1" xmlns="http://www.w3.org/2000/svg" xmlns:xlink="http://www.w3.org/1999/xlink" x="0px" y="0px"
	 width="45px" height="42.882px" viewBox="0 0 45 42.882" enable-background="new 0 0 45 42.882" xml:space="preserve">
<g>
	<path fill-rule="evenodd" clip-rule="evenodd" fill="#FFFFFF" d="M19.206,30.372c-0.122,0.651-0.33,1.3-0.35,1.955
		c-0.051,1.649-0.016,3.302-0.018,4.952c-0.003,2.35-1.638,3.669-3.84,2.793c2.738-1.655,1.599-4.447,1.806-6.981
		c-1.099,0-2.088,0.054-3.071-0.014c-1.172-0.079-2.141-0.772-2.74-1.915c-0.953-1.818-1.538-3.938-3.419-4.918
		c0.908-0.848,1.875-0.755,2.702,0.211c0.636,0.742,1.172,1.604,1.759,2.406c0.991,1.352,3.307,1.8,4.597,0.881
		c0.158-0.113,0.306-0.297,0.395-0.488c0.389-0.848,0.753-1.711,1.142-2.604c-0.946-0.266-2-0.546-3.046-0.858
		c-2.081-0.619-3.747-1.943-5.016-4.009c-0.21-0.343-0.784-0.6-1.151-0.545c-2.698,0.4-5.387,0.89-8.078,1.354
		C0.589,22.642,0.304,22.72,0,22.667c3.088-1.216,6.293-1.643,9.545-1.745c0.037-0.132,0.075-0.264,0.112-0.396
		c-0.296-0.219-0.6-0.639-0.886-0.623c-2.917,0.167-5.831,0.406-8.752,0.594c2.991-0.763,6.059-0.766,9.019-0.954
		c-0.152-1.854-0.356-3.595-0.425-5.344c-0.084-2.117,0.54-3.985,1.615-5.688c0.268-0.424,0.312-1.097,0.349-1.665
		c0.104-1.586,0.143-3.178,0.224-4.767c0.042-0.842,0.538-1.123,1.108-0.873c1.42,0.622,2.83,1.299,4.195,2.07
		c0.504,0.285,0.887,0.425,1.462,0.268c2.828-0.775,5.683-0.624,8.542-0.203c0.444,0.065,0.946-0.095,1.377-0.288
		c1.358-0.61,2.688-1.311,4.045-1.922c0.62-0.279,1.087,0.049,1.146,0.831c0.111,1.473,0.14,2.953,0.216,4.429
		c0.021,0.407-0.026,0.937,0.164,1.198c2.372,3.229,2.43,6.991,1.886,10.908c-0.042,0.305-0.071,0.612-0.123,1.057
		c3.221,0.078,6.393,0.119,9.717,0.991c-3.097-0.24-5.963-0.468-8.831-0.683c-0.562-0.042-1.175-0.127-1.232,1.027
		c3.298,0.248,6.6,0.453,9.748,1.792c-1.207-0.267-2.406-0.603-3.621-0.785c-1.878-0.281-3.766-0.481-5.653-0.65
		c-0.287-0.026-0.741,0.208-0.874,0.483c-1.394,2.877-3.713,3.901-6.271,4.475c-0.609,0.138-1.222,0.245-2.002,0.399
		c1.547,1.522,1.649,3.471,1.654,5.45c0.001,1.493,0.048,2.992-0.034,4.48c-0.073,1.314,0.273,2.294,1.211,3.004
		c0.172,0.129,0.289,0.358,0.456,0.573c-1.984,0.879-3.658-0.404-3.678-2.713c-0.015-1.689,0.004-3.382-0.051-5.069
		c-0.022-0.667-0.203-1.326-0.311-1.99c-0.104,0.008-0.21,0.014-0.313,0.02c-0.035,0.268-0.099,0.535-0.1,0.802
		c-0.009,1.966,0.01,3.932-0.011,5.896c-0.014,1.238,0.029,2.43,0.785,3.432c0.141,0.187,0.094,0.569,0.133,0.861
		c-0.248,0.018-0.513,0.11-0.742,0.04c-1.336-0.41-2.151-1.445-2.226-3.065c-0.106-2.308-0.097-4.621-0.135-6.933
		c-0.006-0.465-0.001-0.929-0.001-1.393c-0.116-0.046-0.231-0.091-0.348-0.137c-0.096,0.315-0.271,0.629-0.276,0.947
		c-0.029,2.082,0.021,4.168-0.042,6.248c-0.04,1.316,0.011,2.765-1.092,3.614c-0.564,0.434-1.241,0.662-1.946,1.022
		c-0.063-0.469-0.126-0.637-0.085-0.685c0.94-1.118,0.904-2.552,0.915-3.958c0.018-2.191,0.005-4.385,0.005-6.576
		C19.447,30.438,19.326,30.406,19.206,30.372z M22.392,25.654c1.826-0.21,3.662-0.277,5.45-0.662c1.92-0.412,3.336-1.762,3.9-4.06
		c0.896-3.657-0.403-8.194-4.897-7.929c-0.963,0.057-1.923,0.229-2.882,0.216c-2.425-0.033-4.849-0.192-7.274-0.204
		c-1.666-0.008-3.022,0.812-3.92,2.53c-1.98,3.789,0.006,8.626,3.967,9.449C18.591,25.379,20.495,25.444,22.392,25.654z"/>
	<path fill-rule="evenodd" clip-rule="evenodd" fill="#FFFFFF" d="M29.174,18.664c0.022,1.257-0.625,2.373-1.371,2.363
		c-0.745-0.011-1.319-0.986-1.334-2.267c-0.015-1.333,0.586-2.404,1.346-2.395C28.504,16.372,29.152,17.467,29.174,18.664z"/>
	<path fill-rule="evenodd" clip-rule="evenodd" fill="#FFFFFF" d="M17.987,18.633c0.021,1.302-0.582,2.38-1.338,2.393
		c-0.739,0.012-1.328-0.951-1.372-2.244c-0.041-1.214,0.617-2.396,1.348-2.419C17.313,16.341,17.967,17.43,17.987,18.633z"/>
</g>
</svg>
