<?xml version="1.0" encoding="utf-8"?>
<!-- Generator: Adobe Illustrator 16.0.0, SVG Export Plug-In . SVG Version: 6.00 Build 0)  -->
<!DOCTYPE svg PUBLIC "-//W3C//DTD SVG 1.1//EN" "http://www.w3.org/Graphics/SVG/1.1/DTD/svg11.dtd">
<svg version="1.1" id="Layer_1" xmlns="http://www.w3.org/2000/svg" xmlns:xlink="http://www.w3.org/1999/xlink" x="0px" y="0px"
	 width="44.289px" height="35.189px" viewBox="0 0 44.289 35.189" enable-background="new 0 0 44.289 35.189" xml:space="preserve">
<g>
	<path fill="#FFFFFF" d="M1.222,33.768h41.846V1.42H1.222V33.768z M5.086,31.243c-0.177,0.219-0.438,0.328-0.698,0.328
		c-0.199,0-0.399-0.063-0.565-0.201c-0.388-0.315-0.442-0.881-0.129-1.264l10.523-12.897l1.391,1.137L5.086,31.243z M40.755,31.469
		c-0.167,0.136-0.371,0.203-0.57,0.203c-0.262,0-0.518-0.111-0.696-0.33L28.965,18.443l1.391-1.137L40.88,30.203
		C41.194,30.586,41.139,31.153,40.755,31.469z M3.347,4.967C3.664,4.49,4.249,4.404,4.654,4.779l17.683,16.347L39.628,4.788
		c0.401-0.379,0.983-0.302,1.306,0.17c0.322,0.474,0.255,1.165-0.146,1.543L22.349,23.928L3.509,6.509
		C3.103,6.135,3.034,5.446,3.347,4.967z"/>
	<path fill="#FFFFFF" d="M42.536,0.062H1.753C0.788,0.062,0,0.841,0,1.799v31.592c0,0.957,0.788,1.736,1.753,1.736h40.783
		c0.965,0,1.753-0.779,1.753-1.736V1.799C44.289,0.841,43.501,0.062,42.536,0.062z M42.483,33.318H1.806V1.871h40.678V33.318z"/>
</g>
</svg>
