<?xml version="1.0" encoding="utf-8"?>
<!-- Generator: Adobe Illustrator 16.0.0, SVG Export Plug-In . SVG Version: 6.00 Build 0)  -->
<!DOCTYPE svg PUBLIC "-//W3C//DTD SVG 1.1//EN" "http://www.w3.org/Graphics/SVG/1.1/DTD/svg11.dtd">
<svg version="1.1" id="Layer_1" xmlns="http://www.w3.org/2000/svg" xmlns:xlink="http://www.w3.org/1999/xlink" x="0px" y="0px"
	 width="45px" height="42.882px" viewBox="0 0 45 42.882" enable-background="new 0 0 45 42.882" xml:space="preserve">
<path fill-rule="evenodd" clip-rule="evenodd" fill="#FFFFFF" d="M274-224.059c-1.783-0.246-3.565-0.706-5.349-0.706
	c-163.435-0.033-326.868-0.033-490.303,0c-1.783,0-3.565,0.46-5.348,0.706c0.167-0.667,0.229-1.851,0.519-1.908
	c1.122-0.225,2.315-0.092,3.481-0.092c164.333,0,328.667-0.006,493,0.103C271.253-225.956,274.314-228.022,274-224.059z"/>
<g>
	<path fill-rule="evenodd" clip-rule="evenodd" fill="#FFFFFF" d="M32.786,15.857c3.611,0,7.189,0,10.81,0c0,3.667,0,7.323,0,11.015
		c-3.594,0-7.186,0-10.81,0C32.786,23.21,32.786,19.565,32.786,15.857z"/>
	<path fill-rule="evenodd" clip-rule="evenodd" fill="#FFFFFF" d="M1.404,21.445c0.002-3.085,2.481-5.557,5.568-5.551
		c3.078,0.006,5.527,2.485,5.523,5.593c-0.004,3.06-2.499,5.504-5.614,5.499C3.873,26.98,1.402,24.481,1.404,21.445z"/>
	<path fill-rule="evenodd" clip-rule="evenodd" fill="#FFFFFF" d="M19.185,27.025c-0.733-0.736-1.399-1.404-2.043-2.049
		c1.125-1.12,2.273-2.264,3.422-3.407c-1.233-1.236-2.367-2.374-3.462-3.472c0.72-0.711,1.407-1.389,2.117-2.09
		c1.056,1.06,2.191,2.2,3.324,3.338c1.17-1.175,2.306-2.314,3.404-3.417c0.742,0.741,1.429,1.426,2.14,2.137
		c-1.098,1.097-2.236,2.232-3.402,3.397c1.165,1.163,2.304,2.3,3.408,3.401c-0.702,0.705-1.375,1.38-2.072,2.08
		c-1.08-1.118-2.198-2.275-3.329-3.445C21.47,24.727,20.335,25.869,19.185,27.025z"/>
</g>
</svg>
