<?xml version="1.0" encoding="utf-8"?>
<!-- Generator: Adobe Illustrator 16.0.0, SVG Export Plug-In . SVG Version: 6.00 Build 0)  -->
<!DOCTYPE svg PUBLIC "-//W3C//DTD SVG 1.1//EN" "http://www.w3.org/Graphics/SVG/1.1/DTD/svg11.dtd">
<svg version="1.1" id="Layer_1" xmlns="http://www.w3.org/2000/svg" xmlns:xlink="http://www.w3.org/1999/xlink" x="0px" y="0px"
	 width="60px" height="60px" viewBox="0 0 60 60" enable-background="new 0 0 60 60" xml:space="preserve">
<g>
	<line fill="none" x1="0" y1="20.471" x2="0" y2="17.308"/>
	<path class="navLogoSvg" fill="#fff" d="M43.574,45.24c1.18,1.105,2.598,1.09,2.609,1.086l0.152-0.008H60v-2.02
		c-0.672,0.09-1.863,0.217-3.311,0.217c-2.91,0-6.859-0.512-9.662-2.854c-2.225-1.854-3.4-4.588-3.4-7.9v-0.598
		c0-3.31,1.176-6.042,3.4-7.9c4.195-3.5,10.953-2.907,12.973-2.633v-2.9c-0.074,0.003-0.148,0.004-0.229,0.004
		c-0.857,0-2.047-0.171-2.996-0.963c-0.842-0.703-1.305-1.735-1.305-2.906v-0.109c0-1.171,0.463-2.203,1.305-2.905
		c1.035-0.864,2.363-0.99,3.225-0.96V0.001H41.604v38.8C41.604,41.805,42.283,44.033,43.574,45.24z"/>
	<path class="navLogoSvg" fill="#fff" d="M25.32,32.516c0.81-0.213,1.617-0.398,2.396-0.582c1.313-0.303,2.555-0.59,3.753-0.998
		c2.071-0.707,4.079-1.565,4.763-3.055c0.68-1.482,0.836-3.427,0.373-4.625c-0.248-0.641-0.807-1.342-1.049-1.482
		c-1.328-0.739-3.377-0.141-4.865,0.491l-4.838,2.046c-0.336,2.981-0.82,5.806-1.453,8.461
		C24.692,32.689,24.997,32.605,25.32,32.516z"/>
	<path class="navLogoSvg" fill="#fff" d="M49.998,28.838c-1.16,0.973-1.725,2.388-1.725,4.326v0.598c0,1.939,0.564,3.357,1.725,4.33
		c2.65,2.219,7.938,1.869,9.752,1.547L60,39.293V27.637l-0.25-0.346C57.936,26.968,52.648,26.617,49.998,28.838z"/>
	<path class="navLogoSvg" fill="#fff" d="M46.201,50.969c-0.9,0-3.52-0.199-5.805-2.336c-2.281-2.141-3.439-5.447-3.439-9.832v-5.227
		c-1.227,0.74-2.602,1.285-3.986,1.758c-1.423,0.484-2.839,0.812-4.207,1.129c-0.775,0.18-1.509,0.35-2.242,0.545
		c-3.337,0.893-4.604,1.543-4.853,1.684l-0.278,0.244l-0.124-0.014c-0.198,0.115-0.996,0.623-2.014,1.879
		c1.331,1.414,1.833,3.082,2.101,4.35c0.177,0.846,0.342,2.123-0.27,3.463c-0.531,1.17-1.636,2.018-2.879,2.215
		c-0.187,0.031-0.372,0.045-0.558,0.045c-0.955,0-1.855-0.396-2.53-1.131c-1.88-2.037-1.921-5.08-1.692-7.053
		c-1.573-0.781-3.443-1.967-4.897-3.66c-1.615-1.879-2.573-4.754-2.909-5.9c-0.258-0.885-0.44-1.744-0.543-2.58l-2.838-2.024
		C1.515,28.007,0.756,27.443,0,26.84V60h60v-9.031H46.387C46.336,50.969,46.275,50.969,46.201,50.969z"/>
	<path class="navLogoSvg" fill="#fff" d="M26.283,19.083l2.596-1.097c3.131-1.332,5.844-1.559,8.078-0.679V0.001H25.593
		c0.233,1.795,0.696,5.938,0.806,11.278C26.456,13.973,26.416,16.576,26.283,19.083z"/>
	<path class="navLogoSvg" fill="#fff" d="M10.259,12.315c3.142,1.155,4.54,3.793,3.745,7.052c-0.218,0.889-0.542,1.7-0.992,2.48
		c-0.427,0.744-0.921,1.435-1.399,2.103c-0.627,0.872-1.216,1.696-1.536,2.472c-0.613,1.486-0.611,3.302,0.001,5.396
		c0.516,1.765,1.272,3.364,1.975,4.183c0.755,0.877,1.867,1.709,3.181,2.396c1.639-2.174,3.13-3.174,3.797-3.551
		c4.478-14.703,2.199-32.522,1.872-34.845H0v12.388c1.272-0.352,2.323-0.469,2.532-0.489C5.099,11.613,7.807,11.412,10.259,12.315z"
		/>
	<path class="navLogoSvg" fill="#fff" d="M4.938,24.74l0.636,0.454c0.064-0.183,0.133-0.363,0.208-0.543c0.524-1.274,1.303-2.359,2.054-3.408
		c0.431-0.602,0.838-1.17,1.149-1.711c0.232-0.401,0.392-0.805,0.506-1.269c0.23-0.944,0.067-1.256-0.836-1.589
		c-0.761-0.28-1.688-0.371-2.621-0.371c-1.073,0-2.151,0.12-3.001,0.216l-0.038,0.003C1.939,16.628,0.815,16.939,0,17.308v3.163
		C0.865,21.498,2.359,22.9,4.938,24.74z"/>
</g>
</svg>
