<?xml version="1.0" encoding="utf-8"?>
<!-- Generator: Adobe Illustrator 16.0.0, SVG Export Plug-In . SVG Version: 6.00 Build 0)  -->
<!DOCTYPE svg PUBLIC "-//W3C//DTD SVG 1.1//EN" "http://www.w3.org/Graphics/SVG/1.1/DTD/svg11.dtd">
<svg version="1.1" id="Layer_1" xmlns="http://www.w3.org/2000/svg" xmlns:xlink="http://www.w3.org/1999/xlink" x="0px" y="0px"
	 width="300px" height="300px" viewBox="0 0 300 300" enable-background="new 0 0 300 300" xml:space="preserve">
<g>
	<line fill="none" x1="0" y1="102.352" x2="0" y2="86.536"/>
	<path fill="#EC1C24" d="M217.871,226.199c5.898,5.527,12.988,5.449,13.047,5.43l0.762-0.039H300v-10.098
		c-3.359,0.449-9.316,1.084-16.553,1.084c-14.551,0-34.297-2.559-48.311-14.268c-11.123-9.268-17.002-22.939-17.002-39.502v-2.988
		c0-16.548,5.879-30.21,17.002-39.502c20.977-17.5,54.766-14.536,64.863-13.164V98.65c-0.371,0.015-0.742,0.02-1.143,0.02
		c-4.287,0-10.234-0.854-14.98-4.814c-4.209-3.516-6.523-8.677-6.523-14.531v-0.547c0-5.854,2.314-11.016,6.523-14.526
		c5.176-4.321,11.816-4.951,16.123-4.8V0.003h-91.982v193.999C208.018,209.021,211.416,220.164,217.871,226.199z"/>
	<path fill="#FFDD15" d="M126.602,162.576c4.048-1.064,8.086-1.992,11.982-2.91c6.567-1.514,12.773-2.949,18.765-4.99
		c10.356-3.535,20.396-7.827,23.813-15.273c3.398-7.412,4.18-17.134,1.865-23.125c-1.24-3.203-4.033-6.709-5.244-7.412
		c-6.641-3.696-16.885-0.703-24.326,2.456l-24.189,10.229c-1.68,14.907-4.102,29.028-7.266,42.305
		C123.462,163.445,124.985,163.025,126.602,162.576z"/>
	<path fill="#F38B00" d="M249.99,144.188c-5.801,4.863-8.623,11.938-8.623,21.631v2.988c0,9.697,2.822,16.787,8.623,21.65
		c13.252,11.094,39.688,9.346,48.76,7.734l1.25-1.729v-58.281l-1.25-1.729C289.678,134.837,263.242,133.084,249.99,144.188z"/>
	<path fill="#82BC00" d="M231.006,254.842c-4.502,0-17.598-0.996-29.023-11.68c-11.406-10.703-17.197-27.236-17.197-49.16v-26.133
		c-6.133,3.701-13.008,6.426-19.932,8.789c-7.114,2.422-14.194,4.062-21.035,5.645c-3.877,0.898-7.544,1.748-11.211,2.725
		c-16.685,4.463-23.018,7.715-24.263,8.418l-1.392,1.221l-0.62-0.068c-0.991,0.576-4.98,3.115-10.068,9.395
		c6.655,7.07,9.165,15.41,10.503,21.748c0.884,4.229,1.709,10.615-1.348,17.314c-2.656,5.85-8.179,10.088-14.395,11.074
		c-0.933,0.156-1.86,0.225-2.788,0.225c-4.775,0-9.277-1.982-12.651-5.654c-9.399-10.186-9.604-25.4-8.462-35.264
		c-7.866-3.906-17.217-9.834-24.487-18.301c-8.076-9.395-12.866-23.77-14.546-29.502c-1.289-4.424-2.202-8.721-2.715-12.9
		L11.187,142.61c-3.613-2.578-7.407-5.396-11.187-8.413v165.801h300v-45.156h-68.066
		C231.68,254.842,231.377,254.842,231.006,254.842z"/>
	<path fill="#0047BA" d="M131.416,95.413l12.979-5.483c15.654-6.66,29.219-7.793,40.391-3.394V0.003h-56.821
		c1.167,8.975,3.481,29.692,4.028,56.392C132.28,69.861,132.08,82.879,131.416,95.413z"/>
	<path fill="#9A3CBB" d="M51.294,61.575c15.708,5.776,22.7,18.965,18.726,35.259c-1.089,4.443-2.71,8.501-4.961,12.402
		c-2.134,3.721-4.604,7.173-6.997,10.513c-3.135,4.36-6.079,8.481-7.681,12.358c-3.066,7.432-3.057,16.509,0.005,26.978
		c2.578,8.823,6.362,16.821,9.873,20.913c3.774,4.385,9.336,8.545,15.903,11.982c8.193-10.869,15.649-15.869,18.984-17.754
		c22.388-73.516,10.996-162.612,9.36-174.224H0v61.938c6.362-1.758,11.616-2.344,12.661-2.446
		C25.493,58.064,39.033,57.059,51.294,61.575z"/>
	<path fill="#00ADEE" d="M24.688,123.699l3.179,2.271c0.322-0.913,0.664-1.816,1.04-2.715c2.622-6.372,6.514-11.797,10.269-17.041
		c2.153-3.008,4.189-5.85,5.747-8.555c1.162-2.007,1.958-4.023,2.529-6.343c1.152-4.722,0.337-6.279-4.18-7.944
		c-3.804-1.401-8.442-1.855-13.105-1.855c-5.366,0-10.757,0.601-15.005,1.079l-0.19,0.015C9.697,83.138,4.077,84.695,0,86.536
		v15.815C4.326,107.488,11.797,114.5,24.688,123.699z"/>
</g>
</svg>
