<?xml version="1.0" encoding="utf-8"?>
<!-- Generator: Adobe Illustrator 16.0.0, SVG Export Plug-In . SVG Version: 6.00 Build 0)  -->
<!DOCTYPE svg PUBLIC "-//W3C//DTD SVG 1.1//EN" "http://www.w3.org/Graphics/SVG/1.1/DTD/svg11.dtd">
<svg version="1.1" id="Layer_1" xmlns="http://www.w3.org/2000/svg" xmlns:xlink="http://www.w3.org/1999/xlink" x="0px" y="0px"
	 width="250px" height="250px" viewBox="0 0 250 250" enable-background="new 0 0 250 250" xml:space="preserve">
<rect x="-183" y="-9.378" fill="#F4F3B4" width="435.577" height="329.274"/>
<text transform="matrix(1 0 0 1 -125.7881 305.7275)" fill="#754C29" font-family="'MyriadPro-Regular'" font-size="7.1066">© Copyright Amena Manji 2014</text>
<g>
	<path fill="#F5E0CD" stroke="#8B5E3C" stroke-width="0.752" stroke-miterlimit="10" d="M46.828,15.748
		c0,0-30.077-5.412-26.818,30.958c0,0-9.779,3.284,0,8.799c0,0,0.751,29.572,29.829,26.44c0,0,22.058-0.528,23.562-26.27
		c0,0,9.527-3.93,0-9.195c0,0,3.984-34.844-24.577-30.331L46.828,15.748z"/>
	<path fill="#603913" stroke="#8B5E3C" stroke-width="0.752" stroke-miterlimit="10" d="M51.94,10.388c0,0-12.725,0.625-2.453,7.686
		c0,0,1.029,5.397,7.6,3.738c0,0,2.054,4.984,6.985,4.775c0,0,0.823,29.492,16.439,19.316c0,0,5.346-6.326,0.722-8.148
		c0,0,1.743-8.051-6.683-10.338c0,0-2.044-9.293-7.698-8.073C66.853,19.344,62.403,9.766,51.94,10.388z"/>
	<path fill="#603913" stroke="#8B5E3C" stroke-width="0.752" stroke-miterlimit="10" d="M24.709,41.97c0,0-5.264,13.157-13.16,2.633
		c0,0-8.458-7.521,0-13.161c0,0-2.254-13.161,2.446-13.161c0,0,5.828-7.332,10.714-4.134c0,0,3.951-8.462,11.281-5.641
		c0,0,7.141-1.182,9.49,1.855c2.354,3.031,0,0.588,0,0.588s4.611,13.913-6.668,12.221c0,0-3.108,4.966-9.216,2.632
		c-3.191-1.222-0.936,1.13-0.936,1.13s6.202,6.954,0.376,8.646C29.036,35.576,29.786,41.97,24.709,41.97z"/>
	<path fill="#FFFFFF" stroke="#231F20" stroke-width="0.2846" stroke-miterlimit="10" d="M46.938,42.228
		c0,4.314-2.824,7.81-6.313,7.81s-6.315-3.495-6.315-7.81c0-4.316,2.826-7.811,6.315-7.811S46.938,37.912,46.938,42.228z"/>
	<path fill="#FFFFFF" stroke="#231F20" stroke-width="0.2846" stroke-miterlimit="10" d="M61.075,42.228
		c0,4.314-2.831,7.81-6.316,7.81c-3.489,0-6.315-3.495-6.315-7.81c0-4.316,2.826-7.811,6.315-7.811
		C58.244,34.417,61.075,37.912,61.075,42.228z"/>
	<path fill="#231F20" d="M54.756,44.725c0,0.971-0.483,1.755-1.079,1.755c-0.599,0-1.079-0.785-1.079-1.755
		c0-0.968,0.48-1.753,1.079-1.753C54.273,42.972,54.756,43.757,54.756,44.725z"/>
	<ellipse fill="#231F20" cx="42.899" cy="44.725" rx="1.082" ry="1.755"/>
	<path fill="#F5E0CD" stroke="#8B5E3C" stroke-width="0.376" stroke-miterlimit="10" d="M73.023,50.038c0,0,3.103,0.955,0,3.21"/>
	<path fill="#F5E0CD" stroke="#8B5E3C" stroke-width="0.376" stroke-miterlimit="10" d="M49.178,53.125c0,0,3.106,0.956,0,3.213"/>
	<path fill="#F5E0CD" stroke="#8B5E3C" stroke-width="0.376" stroke-miterlimit="10" d="M19.947,52.121c0,0-3.102-0.954,0-3.209"/>
	<path fill="#F5E0CD" stroke="#8B5E3C" stroke-width="0.376" stroke-miterlimit="10" d="M34.924,32.566c0,0,6.955-4.007,10.555,0"/>
	<path fill="#F5E0CD" stroke="#8B5E3C" stroke-width="0.376" stroke-miterlimit="10" d="M60.521,32.566c0,0-6.952-4.007-10.557,0"/>
	<path fill="#F5E0CD" stroke="#8B5E3C" stroke-width="0.376" stroke-miterlimit="10" d="M34.31,52.121c0,0,0.837,5.39-5.273,4.386"
		/>
	<path fill="#F5E0CD" stroke="#8B5E3C" stroke-width="0.376" stroke-miterlimit="10" d="M61.525,53.499c0,0-0.424,2.38,3.084,3.259"
		/>
	<path fill="none" stroke="#8B5E3C" stroke-width="0.376" stroke-miterlimit="10" d="M33.438,55.505c0,0,0.106,21.807,16.526,15.288
		c0,0,10.653-4.383,12.721-15.288"/>
	<path fill="#603913" stroke="#8B5E3C" stroke-width="0.752" stroke-miterlimit="10" d="M52.598,13.77c0,0,3.098,6.987,7.923,5.075
		c0,0-0.433,3.197,3.779,4.513"/>
	<path fill="#603913" stroke="#8B5E3C" stroke-width="0.752" stroke-miterlimit="10" d="M66.069,29.199
		c0,0,3.391,22.045,11.566,15.526"/>
	<path fill="#603913" stroke="#8B5E3C" stroke-width="0.752" stroke-miterlimit="10" d="M67.759,22.228c0,0,4.235,0.754,4.094,4.513
		c0,0-0.645,4.518,1.862,4.044c0,0,6.356-0.382,5.138,6.779"/>
	<path fill="#603913" stroke="#8B5E3C" stroke-width="0.752" stroke-miterlimit="10" d="M69.078,29.896
		c0,0,3.38,15.412,7.707,12.332"/>
	<path fill="#603913" stroke="#8B5E3C" stroke-width="0.752" stroke-miterlimit="10" d="M53.677,12.264c0,0,8.819,2.316,9.007,5.481
		"/>
	<path fill="#603913" stroke="#8B5E3C" stroke-width="0.752" stroke-miterlimit="10" d="M42.9,11.513c0,0,3.992,11.469-4.657,8.458
		c0,0-4.501,6.017-11.084,2.257"/>
	<path fill="#603913" stroke="#8B5E3C" stroke-width="0.752" stroke-miterlimit="10" d="M27.159,15.006c0,0,4.259-5.937,8.329-3.493
		"/>
	<path fill="#603913" stroke="#8B5E3C" stroke-width="0.752" stroke-miterlimit="10" d="M13.242,33.509c0,0-5.454,3.713-1.128,8.719
		"/>
	<path fill="#603913" stroke="#8B5E3C" stroke-width="0.752" stroke-miterlimit="10" d="M13.995,29.896c0,0-2.296-9.546,1.668-9.172
		c0,0,3.219-8.271,8.857-4.134"/>
	<path fill="#603913" stroke="#8B5E3C" stroke-width="0.752" stroke-miterlimit="10" d="M24.521,25.801c0,0,8.471,7.334,2.639,7.708
		c0,0,1.309,9.095-4.896,4.358c0,0,0.431,7.514-6.6,8.065"/>
	<path fill="#603913" stroke="#8B5E3C" stroke-width="0.752" stroke-miterlimit="10" d="M18.928,32.566c0,0-7.55,5.345-3.265,10.406
		"/>
</g>
<g>
	<g>
		
			<ellipse fill="#FFFFFF" stroke="#754C29" stroke-width="1.4429" stroke-miterlimit="10" cx="96.407" cy="60.844" rx="6.884" ry="5.412"/>
		
			<ellipse fill="#FFFFFF" stroke="#754C29" stroke-width="1.4429" stroke-miterlimit="10" cx="100.875" cy="67.7" rx="8.799" ry="6.013"/>
		
			<ellipse fill="#FFFFFF" stroke="#754C29" stroke-width="1.4429" stroke-miterlimit="10" cx="115.062" cy="79.834" rx="15.772" ry="12.808"/>
	</g>
	
		<ellipse fill="#FFFFFF" stroke="#754C29" stroke-width="1.4429" stroke-miterlimit="10" cx="130.834" cy="211.151" rx="10.578" ry="8.315"/>
	
		<ellipse fill="#FFFFFF" stroke="#754C29" stroke-width="1.4429" stroke-miterlimit="10" cx="129.501" cy="200.318" rx="13.521" ry="9.238"/>
	<path fill="#FFFFFF" stroke="#754C29" stroke-width="1.4429" stroke-miterlimit="10" d="M87.178,180.636
		c0-10.867,10.851-19.679,24.234-19.679c13.385,0,24.237,8.812,24.237,19.679c0,10.871-10.853,19.682-24.237,19.682
		C98.029,200.317,87.178,191.507,87.178,180.636z"/>
	<path fill="#FFFFFF" stroke="#754C29" stroke-width="1.4429" stroke-miterlimit="10" d="M193.843,133.143
		c0-4.957-1.834-9.485-4.862-12.963c0.861-2.216,1.338-4.619,1.338-7.136c0-10.956-8.944-19.838-19.979-19.838
		c-2.261,0-4.433,0.379-6.459,1.066c-3.604-5.189-9.629-8.593-16.458-8.593c-3.526,0-6.84,0.912-9.716,2.505
		c-3.584-3.399-8.44-5.489-13.788-5.489c-6.545,0-12.354,3.125-15.999,7.954c-3.664-4.227-9.086-6.907-15.146-6.907
		c-7.625,0-14.249,4.242-17.616,10.477c-3.19-2.141-7.036-3.39-11.176-3.39c-11.034,0-19.979,8.881-19.979,19.836
		c0,2.909,0.636,5.669,1.77,8.158c-3.633,3.593-5.883,8.562-5.883,14.056c0,10.957,8.946,19.839,19.979,19.839
		c1.475,0,2.908-0.164,4.292-0.464c1.291,9.718,9.66,17.221,19.8,17.221c3.21,0,6.242-0.758,8.93-2.093
		c1.069,9.955,9.553,17.71,19.864,17.71c6.422,0,12.133-3.013,15.788-7.689c2.529,1.149,5.34,1.797,8.305,1.797
		c6.706,0,12.637-3.286,16.261-8.321c3.108,1.979,6.802,3.131,10.768,3.131c11.033,0,19.979-8.881,19.979-19.838
		c0-1.249-0.122-2.47-0.345-3.656C189.67,147.136,193.843,140.624,193.843,133.143z"/>
</g>
<g>
	<path fill="#F5E0CD" stroke="#8B5E3C" stroke-width="0.752" stroke-miterlimit="10" d="M204.117,176.61
		c0,0-30.077-5.412-26.816,30.957c0,0-9.779,3.284,0,8.799c0,0,0.751,29.574,29.828,26.441c0,0,22.058-0.528,23.562-26.269
		c0,0,9.526-3.931,0-9.196c0,0,3.983-34.845-24.576-30.331L204.117,176.61z"/>
	<path fill="#603913" stroke="#8B5E3C" stroke-width="0.752" stroke-miterlimit="10" d="M209.23,171.25
		c0,0-12.725,0.624-2.452,7.687c0,0,1.027,5.397,7.599,3.737c0,0,2.055,4.983,6.986,4.775c0,0,0.822,29.492,16.438,19.315
		c0,0,5.347-6.326,0.722-8.146c0,0,1.743-8.052-6.682-10.339c0,0-2.045-9.294-7.7-8.074
		C224.142,180.205,219.693,170.627,209.23,171.25z"/>
	<path fill="#603913" stroke="#8B5E3C" stroke-width="0.752" stroke-miterlimit="10" d="M181.998,202.832
		c0,0-5.263,13.157-13.159,2.633c0,0-8.458-7.521,0-13.162c0,0-2.255-13.159,2.445-13.159c0,0,5.829-7.332,10.714-4.135
		c0,0,3.951-8.463,11.282-5.64c0,0,7.141-1.183,9.489,1.853c2.354,3.031,0,0.59,0,0.59s4.611,13.912-6.669,12.22
		c0,0-3.107,4.967-9.215,2.632c-3.192-1.222-0.937,1.13-0.937,1.13s6.202,6.954,0.377,8.646
		C186.326,196.439,187.076,202.832,181.998,202.832z"/>
	<path fill="#FFFFFF" stroke="#231F20" stroke-width="0.2846" stroke-miterlimit="10" d="M204.228,203.091
		c0,4.313-2.824,7.809-6.313,7.809c-3.488,0-6.314-3.495-6.314-7.809c0-4.316,2.826-7.811,6.314-7.811
		C201.403,195.28,204.228,198.774,204.228,203.091z"/>
	<path fill="#FFFFFF" stroke="#231F20" stroke-width="0.2846" stroke-miterlimit="10" d="M218.365,203.091
		c0,4.313-2.832,7.809-6.316,7.809c-3.49,0-6.315-3.495-6.315-7.809c0-4.316,2.825-7.811,6.315-7.811
		C215.533,195.28,218.365,198.774,218.365,203.091z"/>
	<path fill="#231F20" d="M212.048,205.587c0,0.97-0.483,1.756-1.081,1.756c-0.599,0-1.079-0.786-1.079-1.756
		c0-0.967,0.48-1.753,1.079-1.753C211.564,203.834,212.048,204.62,212.048,205.587z"/>
	<path fill="#231F20" d="M201.271,205.587c0,0.97-0.483,1.756-1.081,1.756c-0.6,0-1.082-0.786-1.082-1.756
		c0-0.967,0.482-1.753,1.082-1.753C200.787,203.834,201.271,204.62,201.271,205.587z"/>
	<path fill="#F5E0CD" stroke="#8B5E3C" stroke-width="0.376" stroke-miterlimit="10" d="M230.312,210.899c0,0,3.104,0.956,0,3.212"
		/>
	<path fill="#F5E0CD" stroke="#8B5E3C" stroke-width="0.376" stroke-miterlimit="10" d="M206.468,213.987c0,0,3.106,0.956,0,3.213"
		/>
	<path fill="#F5E0CD" stroke="#8B5E3C" stroke-width="0.376" stroke-miterlimit="10" d="M177.236,212.982c0,0-3.103-0.954,0-3.209"
		/>
	<path fill="#F5E0CD" stroke="#8B5E3C" stroke-width="0.376" stroke-miterlimit="10" d="M192.215,193.428c0,0,6.955-4.007,10.555,0"
		/>
	<path fill="#F5E0CD" stroke="#8B5E3C" stroke-width="0.376" stroke-miterlimit="10" d="M217.812,193.428c0,0-6.954-4.007-10.559,0"
		/>
	<path fill="#603913" stroke="#8B5E3C" stroke-width="0.752" stroke-miterlimit="10" d="M209.888,174.632
		c0,0,3.099,6.988,7.925,5.075c0,0-0.435,3.196,3.777,4.514"/>
	<path fill="#603913" stroke="#8B5E3C" stroke-width="0.752" stroke-miterlimit="10" d="M223.36,190.061
		c0,0,3.39,22.047,11.564,15.526"/>
	<path fill="#603913" stroke="#8B5E3C" stroke-width="0.752" stroke-miterlimit="10" d="M225.049,183.091
		c0,0,4.235,0.755,4.094,4.512c0,0-0.645,4.519,1.862,4.044c0,0,6.356-0.381,5.138,6.78"/>
	<path fill="#603913" stroke="#8B5E3C" stroke-width="0.752" stroke-miterlimit="10" d="M226.367,190.76
		c0,0,3.381,15.41,7.708,12.331"/>
	<path fill="#603913" stroke="#8B5E3C" stroke-width="0.752" stroke-miterlimit="10" d="M210.967,173.127
		c0,0,8.82,2.316,9.007,5.481"/>
	<path fill="#603913" stroke="#8B5E3C" stroke-width="0.752" stroke-miterlimit="10" d="M200.189,172.375
		c0,0,3.993,11.471-4.656,8.459c0,0-4.5,6.017-11.084,2.257"/>
	<path fill="#603913" stroke="#8B5E3C" stroke-width="0.752" stroke-miterlimit="10" d="M184.449,175.868
		c0,0,4.258-5.936,8.329-3.493"/>
	<path fill="#603913" stroke="#8B5E3C" stroke-width="0.752" stroke-miterlimit="10" d="M170.532,194.372
		c0,0-5.454,3.713-1.128,8.719"/>
	<path fill="#603913" stroke="#8B5E3C" stroke-width="0.752" stroke-miterlimit="10" d="M171.284,190.76c0,0-2.297-9.547,1.67-9.172
		c0,0,3.219-8.273,8.856-4.135"/>
	<path fill="#603913" stroke="#8B5E3C" stroke-width="0.752" stroke-miterlimit="10" d="M181.811,186.663
		c0,0,8.472,7.334,2.639,7.709c0,0,1.309,9.094-4.896,4.356c0,0,0.432,7.516-6.599,8.065"/>
	<path fill="#603913" stroke="#8B5E3C" stroke-width="0.752" stroke-miterlimit="10" d="M176.218,193.428
		c0,0-7.55,5.344-3.264,10.406"/>
	<path fill="#F5E0CD" stroke="#8B5E3C" stroke-width="0.3607" stroke-miterlimit="10" d="M195.602,226.121
		c0,0,16.052-6.13,19.87,3.246"/>
	<path fill="#F5E0CD" stroke="#8B5E3C" stroke-width="0.3607" stroke-miterlimit="10" d="M213.276,232.762
		c0,0-1.228-4.921,5.977-4.921"/>
</g>
<g>
	
		<ellipse fill="#F5E0CD" stroke="#8B5E3C" stroke-width="0.752" stroke-miterlimit="10" cx="97.587" cy="124.785" rx="23.44" ry="20.091"/>
	
		<ellipse fill="#FFFFFF" stroke="#231F20" stroke-width="0.2846" stroke-miterlimit="10" cx="92.563" cy="130.296" rx="5.022" ry="4.534"/>
	
		<ellipse fill="#FFFFFF" stroke="#231F20" stroke-width="0.2846" stroke-miterlimit="10" cx="92.563" cy="119.274" rx="5.022" ry="4.534"/>
	<path fill="#F5E0CD" stroke="#8B5E3C" stroke-width="0.376" stroke-miterlimit="10" d="M96.609,124.785c0,0,0.698,0.558,1.535,0
		c0,0,2.093-0.977,1.674,0.977"/>
	<path fill="#F5E0CD" stroke="#8B5E3C" stroke-width="0.376" stroke-miterlimit="10" d="M108.608,122.692
		c0,0,4.325,1.848,0.698,8.928"/>
	<path fill="#F5E0CD" stroke="#8B5E3C" stroke-width="0.376" stroke-miterlimit="10" d="M106.935,131.62
		c0,0,2.479-1.254,3.821,1.258"/>
	<path fill="none" stroke="#8B5E3C" stroke-width="0.752" stroke-miterlimit="10" d="M74.12,123.047c0,0-0.739-2.607-4.894-0.771
		c0,0-4.524,1.619-6.878-3.181"/>
	<path fill="none" stroke="#8B5E3C" stroke-width="0.752" stroke-miterlimit="10" d="M73.682,124.343c0,0-0.739-2.606-4.895-0.771
		c0,0-4.523,1.62-6.877-3.181"/>
	<path fill="none" stroke="#8B5E3C" stroke-width="0.752" stroke-miterlimit="10" d="M73.913,124.905c0,0-1.089,2.48-4.954,0.093
		c0,0-4.26-2.225-7.249,2.208"/>
	<path fill="none" stroke="#8B5E3C" stroke-width="0.752" stroke-miterlimit="10" d="M74.168,126.249c0,0-1.088,2.48-4.953,0.093
		c0,0-4.26-2.226-7.249,2.207"/>
	<ellipse fill="#231F20" cx="93.54" cy="128.471" rx="0.976" ry="0.778"/>
	<ellipse fill="#231F20" cx="93.54" cy="121.071" rx="0.976" ry="0.779"/>
	<path fill="#F8C5DB" stroke="#D06999" stroke-width="0.3607" stroke-miterlimit="10" d="M92.564,144.508
		c0,0,28.463,5.391,27.28-25.253c0,0,7.38-1.848,13.595,3.765l39.565,2.336c0,0,2.436,20.22-6.772,24.264
		c0,0-30.556,8.931-32.798-3.768C133.434,145.852,106.098,162.759,92.564,144.508z"/>
	<path fill="#F5ACCC" stroke="#D16F9D" stroke-width="0.3607" stroke-miterlimit="10" d="M98.865,104.28
		c0,0,4.318-0.545,13.651,7.618c0,0,10.465,10.386,13.018,20.978c0,0,2.969,14.108,19.782,4.954c0,0,14.394-11.71,22.162-10.329
		c0,0,5.053,0.675,5.616,8.13c0,0,4.02-23.068-10.352-25.021c0,0-17.439-8.012-31.549,1.289
		C131.193,111.898,117.537,96.994,98.865,104.28z"/>
	<path fill="#F5ACCC" stroke="#D16F9D" stroke-width="0.3607" stroke-miterlimit="10" d="M131.193,111.981
		c0,0,9.366,4.851,8.668,15.176"/>
	<path fill="#F5ACCC" stroke="#D16F9D" stroke-width="0.3607" stroke-miterlimit="10" d="M162.695,110.647
		c0,0,9.367,4.851,8.669,15.176"/>
	<path fill="#F8C5DB" stroke="#D06999" stroke-width="0.3607" stroke-miterlimit="10" d="M133.434,145.852
		c0,0,4.755-5.3,14.241-2.37"/>
	<path fill="#F5E0CD" stroke="#8B5E3C" stroke-width="0.376" stroke-miterlimit="10" d="M96.358,107.989c0,0,1.278-2.65,3.767,0.419
		"/>
	<path fill="#F5E0CD" stroke="#8B5E3C" stroke-width="0.376" stroke-miterlimit="10" d="M85.04,119.569c0,0-0.188-3.715,3.579-5.528
		"/>
	<path fill="#F5E0CD" stroke="#8B5E3C" stroke-width="0.376" stroke-miterlimit="10" d="M86.243,127.008
		c0,0-2.041,3.108,0.292,6.576"/>
	<g>
		<path fill="#EC1C24" stroke="#231F20" stroke-width="0.279" stroke-miterlimit="10" d="M68.852,123.559
			c0,0,2.318-1.605,1.76-2.861c0,0-0.519-0.627-1.76,0c0,0-0.333,0.35-1.24-0.278c0,0-1.325-0.488-1.046,1.256l0.716,1.884H68.852z"
			/>
		<polyline fill="#EC1C24" stroke="#231F20" stroke-width="0.279" stroke-miterlimit="10" points="67.727,121.957 68.055,123.559 
			68.913,121.957 		"/>
		<path fill="#EC1C24" stroke="#231F20" stroke-width="0.279" stroke-miterlimit="10" d="M67.331,124.49
			c0,0-2.207,1.752-1.568,2.969c0,0,0.555,0.593,1.754-0.114c0,0,0.311-0.369,1.257,0.199c0,0,1.354,0.401,0.962-1.321l-0.836-1.834
			L67.331,124.49z"/>
		<polyline fill="#EC1C24" stroke="#231F20" stroke-width="0.279" stroke-miterlimit="10" points="68.56,126.016 68.128,124.439 
			67.375,126.092 		"/>
		
			<ellipse fill="#EC1C24" stroke="#231F20" stroke-width="0.279" stroke-miterlimit="10" cx="68.055" cy="124.05" rx="1.137" ry="0.907"/>
	</g>
</g>
<g>
	<path fill="#DA1C5C" d="M142.294,19.39c-2.321,0-4.82,2.036-6.999,4.749c0.144,1.214,0.215,2.535,0.215,3.928
		c0,6.57-1.893,12.425-5.213,12.425c-1.535,0-2.678-1.214-2.678-3.07c0-3.535,2.499-9.641,5.998-13.675
		c-0.179-1.785-0.464-2.928-0.893-4.142c-0.535,0.25-1.893,0.607-3.035,0.607c-3.642,0-6.355-1.821-6.355-4.285
		c0-1.892,1.678-3.32,3.892-3.32c2.571,0,4.892,1.678,6.355,4.749c1.143-0.928,1.857-2.321,1.857-3.749
		c0-0.821-0.215-1.606-0.715-2.392c-0.106-0.107-0.106-0.25-0.106-0.393c0-0.464,0.321-0.821,0.785-0.821
		c0.964,0,1.643,2.356,1.643,3.606c0,2.035-1.106,3.928-2.893,5.213c0.357,1,0.644,2.214,0.857,3.392
		c2.249-2.463,4.784-4.285,7.319-4.285s5.213,1.536,5.213,7.712c0,4.428-1.714,9.712-4.499,14.247
		c-0.143,0.214-0.428,0.393-0.678,0.393c-0.429,0-0.786-0.357-0.786-0.821c0-0.143,0.036-0.286,0.107-0.429
		c2.643-4.285,4.249-9.462,4.249-13.39C145.936,21.854,144.758,19.39,142.294,19.39z M129.689,18.747c0.893,0,1.928-0.25,2.606-0.5
		c-1.356-2.82-3.213-4.177-5.07-4.177c-1.321,0-2.249,0.571-2.249,1.856C124.977,17.462,127.012,18.747,129.689,18.747z
		 M133.867,25.817c-2.749,3.571-4.606,8.748-4.642,11.604c0,0.75,0.356,1.571,1.178,1.571c1.714,0,3.535-4.463,3.535-10.926
		C133.938,27.388,133.902,26.459,133.867,25.817z"/>
	<path fill="#DA1C5C" d="M156.751,30.423c0-0.714-0.5-1.214-1.429-1.214c-1.785,0-4.32,2.285-4.32,6.105
		c0,1.214,0.393,3.392,2.964,3.392c0.928,0,1.892-0.428,2.499-1.178c0.143-0.179,0.321-0.286,0.571-0.286
		c0.429,0,0.714,0.357,0.714,0.821c0,0.678-1.714,2.106-3.892,2.106c-2.714,0-4.463-1.821-4.463-4.856
		c0-4.499,3.142-7.641,5.963-7.641c2.142,0,2.999,1.321,2.999,2.749c0,2.821-2.964,4.213-5.07,4.213
		c-0.429,0-0.785-0.286-0.785-0.75c0-0.393,0.321-0.75,0.785-0.786C154.965,33.065,156.751,32.03,156.751,30.423z"/>
	<path fill="#DA1C5C" d="M175.209,27.566c1.035,0,1.035,1.785,1.035,2.214c0,3.32-2.393,10.14-5.927,10.14
		c-1.357,0-2.893-1.107-2.856-4.035c-0.893,2.393-2.535,4.07-4.356,4.07c-2.249,0-2.892-2.642-2.892-4.784
		c0-2.285,0.464-4.892,0.856-6.427c0.107-0.393,0.429-0.643,0.785-0.643c0.429,0,0.786,0.357,0.786,0.821
		c0,0.071,0,0.107-0.036,0.178c-0.356,1.464-0.785,3.928-0.785,6.07c0,2.035,0.5,3.285,1.393,3.285c1.999,0,4.355-4.392,4.749-9.783
		c0.035-0.428,0.321-0.75,0.678-0.75c0.465,0,0.821,0.357,0.821,0.821c0,0.036-0.035,0.571-0.106,1.214
		c-0.179,1.75-0.429,3.82-0.429,5.213c0,1.571,0.356,3.213,1.464,3.213c2.035,0,4.284-5.285,4.284-8.605
		c0-0.429-0.071-0.821-0.214-1.071c-0.036-0.107-0.071-0.214-0.071-0.321c0-0.286,0.214-0.607,0.5-0.714
		C174.994,27.602,175.102,27.566,175.209,27.566z"/>
	<path fill="#DA1C5C" d="M201.913,34.065c0,4.356-3.606,6.534-7.712,6.534c-4.249,0-7.677-2.25-7.677-7.677
		c0-2.606,0.643-5.32,1.321-7.962c-2.285-0.464-3.5-1.785-3.5-3.392c0-1.785,1.5-3.428,4.321-3.999
		c-0.036-0.928-0.215-2-0.715-2.535c-0.179-0.178-0.214-0.357-0.214-0.571c0-0.428,0.321-0.786,0.785-0.786
		c0.715,0,1.571,1.25,1.75,3.678c2.714-0.143,10.462,0.393,10.462,6.463c0,1.607-1,3.642-3.856,4.606
		C200.771,29.03,201.913,32.065,201.913,34.065z M188.023,23.603c0.322-1.5,0.644-3.285,0.715-4.606
		c-1.929,0.429-2.785,1.571-2.785,2.571C185.953,22.782,187.06,23.389,188.023,23.603z M200.307,34.065
		c0-3.071-2.749-4.999-7.641-4.642c-0.429,0.036-0.786-0.25-0.786-0.714c0-0.428,0.357-0.786,0.786-0.786
		c5.105-0.071,6.498-2.571,6.498-4.106c0-1.25-0.393-2.178-1.143-2.892c-1.393-1.393-4.392-2.356-7.713-2.178
		c-0.035,1.5-0.321,3.178-0.678,4.999c0.928,0,2.606-0.5,2.606-1.964c0-0.071-0.071-0.429-0.071-0.536c0-0.393,0.285-0.75,0.75-0.75
		c0.82,0,0.82,0.857,0.82,1.286c0,1.856-1.535,3.428-4.392,3.392c-0.714,2.821-1.214,5.249-1.214,7.677
		c0,4.82,3.178,6.427,6.07,6.427C197.129,39.278,200.307,37.6,200.307,34.065z"/>
	<path fill="#DA1C5C" d="M213.979,31.244c0,1.357-0.214,2.928-0.464,4.285c-0.143,0.928-0.357,2.142-0.357,2.856
		c0,0.214,0.036,0.357,0.071,0.464c0.072,0.143,0.144,0.25,0.144,0.428c0,0.393-0.393,0.75-0.821,0.75c-0.786,0-1-1-1-1.714
		c0-0.75,0.214-1.75,0.393-3.035c0.215-1.321,0.464-2.713,0.464-3.963c0-1.714-0.928-2.356-1.856-2.356
		c-2.714,0-4.749,4.142-4.749,7.391c0,1.321,0.607,2.25,1.536,2.25c0.964,0,1.678-0.857,2.035-1.821
		c0.106-0.286,0.393-0.464,0.678-0.464c0.465,0,0.75,0.357,0.75,0.785c0,0.607-1.143,3-3.713,3c-1.429,0-2.893-1.071-2.893-3.749
		c0-3.713,2.571-8.891,6.499-8.891C212.73,27.459,213.979,28.78,213.979,31.244z"/>
	<path fill="#DA1C5C" d="M217.155,34.636c0-2.606,0.571-5.606,1.393-8.319c-0.5,0.071-1.179,0.107-1.714,0.107
		c-0.679,0-0.857-0.5-0.857-0.821c0-0.107,0.071-0.678,0.857-0.678c0.856,0,1.535-0.107,2.285-0.286
		c0.785-2.285,3.034-7.927,6.355-7.927c1.428,0,2.285,0.857,2.285,2.428c0,1.571-1.143,2.999-1.893,3.749
		c-1.464,1.5-3.499,2.428-5.499,2.963c-0.928,2.571-1.643,6.105-1.643,8.784c0,2.571,0.715,4.249,2.429,4.249
		c1.749,0,3.999-3.321,3.999-6.784c0-1.714-0.607-2.963-1.857-2.963c-0.749,0-1.214,0.214-1.642,0.678
		c-0.179,0.179-0.394,0.25-0.607,0.25c-0.429,0-0.785-0.357-0.785-0.786c0-0.5,0.928-1.714,3.106-1.714
		c2.142,0,3.355,1.857,3.355,4.535c0,3.928-2.713,8.069-5.605,8.069C219.44,40.17,217.155,39.492,217.155,34.636z M224.832,21.782
		c0.678-0.679,1.32-1.857,1.32-2.571c0-0.607-0.285-1.036-0.749-1.036c-1.393,0-3.035,2.428-4.535,5.999
		C222.332,23.71,223.832,22.817,224.832,21.782z"/>
	<path fill="#DA1C5C" d="M231.186,28.709c-0.285,1.535-0.785,4.07-0.785,6.355c0,1.036,0.143,3.321,1.356,3.321
		c2.179,0,4.856-5.57,4.82-9.891c0-0.428,0.393-0.75,0.821-0.75s0.714,0.357,0.714,0.785c0,1.607-0.25,5.106-0.356,6.784
		c-0.107,1.5-0.357,4.428-1.286,7.498c1.179,0.679,2.071,1.857,2.071,3.214c0,0.428-0.357,0.785-0.785,0.785
		c-0.429,0-0.75-0.357-0.75-0.785c0-1-0.785-1.536-1.107-1.678c-1.57,4.035-5.069,6.605-8.248,6.605c-1.749,0-3.32-0.857-3.32-3.035
		c0-3.677,4.606-5.999,8.355-5.999c0.821,0,1.643,0.107,2.285,0.321c0.571-1.785,1.106-4.677,1.321-6.855
		c-0.893,2.5-2.785,4.57-4.535,4.57c-2.214,0-2.964-2.392-2.964-4.892c0-2.463,0.536-5.177,0.786-6.498
		c0.071-0.25,0.179-0.821,0.856-0.821c0.429,0,0.786,0.357,0.786,0.821L231.186,28.709z M234.542,43.598
		c-0.5-0.143-1.25-0.214-1.856-0.214c-2.964,0-6.748,1.893-6.748,4.428c0,1.143,0.964,1.678,1.928,1.678
		C230.329,49.49,233.149,47.169,234.542,43.598z"/>
	<path fill="#DA1C5C" d="M159.373,54.091c0-0.357,0.039-0.714,0.079-1.032c-5.554,1.032-8.966,6.269-8.966,11.862
		c0,5.673,3.332,10.236,9.362,10.236c3.531,0,6.269-1.309,7.815-3.571c0.159-0.238,0.477-0.396,0.754-0.396
		c0.437,0,0.834,0.396,0.834,0.912c0,0.635-2.738,4.761-9.403,4.761c-7.021,0-11.108-5.157-11.108-11.941
		c0-6.942,4.523-12.933,11.188-13.607c1.031-2.5,3.292-3.888,5.752-3.888c0.833,0,2.262,0.08,2.262,1.071
		c0,0.516-0.396,0.793-0.873,0.793c-0.198,0-1.15-0.159-1.389-0.159c-1.428,0-2.856,0.555-3.729,2.142
		c5.078,0.278,7.936,3.61,7.936,7.022c0,2.222-1.429,4.126-4.127,4.126c-1.388,0-2.816-0.675-3.967-1.825
		C160.206,59.05,159.373,56.67,159.373,54.091z M168.062,58.297c0-2.698-2.46-5.277-6.784-5.396
		c-0.079,0.357-0.119,0.753-0.119,1.19c0,4.324,2.737,6.625,4.602,6.625C167.863,60.717,168.062,59.011,168.062,58.297z"/>
	<path fill="#DA1C5C" d="M183.729,67.897c0,4.245-2.499,8.808-6.546,8.808c-2.737,0-4.562-2.42-4.562-6.11
		c0-1.111,0.159-2.142,0.556-3.213c0.119-0.357,0.476-0.635,0.833-0.635c0.476,0,0.833,0.437,0.833,0.873
		c0,0.159-0.04,0.278-0.079,0.397c-0.238,0.595-0.357,1.706-0.357,2.539c0,2.063,0.833,4.483,2.856,4.483
		c2.856,0,4.682-3.769,4.682-7.141c0-1.587-0.635-3.729-2.539-3.729c-1.508,0-2.023,1.27-2.023,2.222
		c0,1.587,1.19,1.587,1.864,1.587c0.517,0,0.913,0.397,0.913,0.873c0,0.238-0.08,0.873-1.071,0.873
		c-2.301,0-3.491-1.508-3.491-3.333c0-1.904,1.349-3.888,3.888-3.888C182.102,62.502,183.729,64.724,183.729,67.897z"/>
	<path fill="#DA1C5C" d="M185.869,75.753c0-0.397,0.277-1.468,0.516-2.539c0.476-2.023,1.071-4.721,1.071-6.824
		c0-0.436,0-1.825-0.596-2.42c-0.119-0.198-0.198-0.396-0.198-0.635c0-0.476,0.396-0.873,0.912-0.873
		c0.834,0,1.786,1.706,1.469,4.245c1.229-2.975,2.816-3.967,4.403-3.967c1.389,0,3.055,0.992,3.214,4.562
		c1.031-3.055,2.618-4.642,4.761-4.642c1.785,0.04,3.292,1.667,3.292,5.951c0,2.856-0.714,6.07-1.07,7.499
		c-0.159,0.357-0.477,0.635-0.873,0.635c-0.516,0-0.912-0.437-0.912-0.913c0-0.079,0-0.159,0.039-0.238
		c0.396-1.349,1.071-4.324,1.071-6.903c0-2.182-0.396-4.245-1.745-4.245c-2.223,0-4.285,4.285-5.039,8.926
		c-0.437,2.698-0.476,3.016-1.19,3.016c-0.516,0-0.872-0.437-0.872-0.913c0-0.159,0.198-1.349,0.356-2.182
		c0.278-1.746,0.516-3.412,0.516-4.959c0-0.873-0.039-3.849-1.745-3.849c-2.063,0-4.404,4.603-5.713,11.466
		c-0.079,0.437-0.396,0.714-0.833,0.714C186.187,76.665,185.869,76.269,185.869,75.753z"/>
	<path fill="#DA1C5C" d="M211.336,64.01c0,0.04,0,0.119-0.04,0.198c-0.714,2.856-1.468,8.014-1.706,11.783
		c-0.039,0.476-0.396,0.833-0.873,0.833c-0.516,0-0.912-0.396-0.912-0.913c0-0.516,0.595-7.418,1.785-12.14
		c0.079-0.476,0.596-0.754,1.071-0.635C211.058,63.256,211.336,63.613,211.336,64.01z M213.16,57.979l-1.587,1.11l2.421,1.547
		l-2.937-0.476l-1.11,2.182l0.039-2.301l-1.983-0.158l1.944-1.111l-0.198-1.825l1.189,1.309L213.16,57.979z"/>
	<path fill="#DA1C5C" d="M224.744,68.334c0,2.777-0.635,5.911-0.912,7.26c-0.119,0.794-0.754,0.794-0.873,0.794
		c-0.516,0-0.913-0.397-0.913-0.913c0-0.04,0-0.08,0.04-0.159c0.317-1.389,0.873-4.404,0.873-6.982c0-2.103-0.396-3.61-1.429-3.61
		c-2.142,0-4.681,4.483-5.95,11.029c-0.08,0.396-0.397,0.674-0.834,0.674c-0.516,0-0.833-0.397-0.833-0.913
		c0-0.476,0.714-3.372,0.873-4.007c0.437-1.785,0.794-3.531,0.833-4.88c-0.039-1.19-0.198-1.865-0.714-2.38
		c-0.119-0.198-0.198-0.397-0.198-0.635c0-0.437,0.396-0.833,0.873-0.833c0.793,0,1.864,1.468,1.705,3.848
		c1.071-2.46,2.619-3.729,4.404-3.729C222.602,62.898,224.744,63.454,224.744,68.334z"/>
	<path fill="#DA1C5C" d="M229.503,71.587c0,1.31,0.317,2.341,0.952,2.936c0.556,0.555,1.389,0.753,2.222,0.714
		c-0.277-0.516-0.396-1.27-0.396-1.865c0-1.825,1.15-3.769,3.015-3.769c1.429,0,2.262,1.19,2.262,2.658
		c0,1.468-0.873,3.015-2.618,3.967c0.317,0.437,0.674,0.833,0.991,1.111c1.23,1.11,2.104,2.658,2.104,4.284
		c0,4.404-4.127,7.062-8.213,7.062c-3.61,0-6.07-1.706-6.07-4.761c0-2.459,1.904-4.364,4.285-4.364c1.428,0,2.46,0.753,2.46,1.745
		c0,0.477-0.357,0.794-0.794,0.794c-0.198,0-0.555-0.08-0.674-0.278c-0.278-0.437-0.754-0.595-1.071-0.595
		c-1.349,0-2.42,1.15-2.42,2.698c0,2.023,1.706,3.134,4.284,3.134c2.816,0,6.427-1.825,6.427-5.436c0-1.19-0.555-2.142-1.507-3.134
		c-0.675-0.675-1.032-1.15-1.429-1.785c-0.158,0.04-0.356,0.079-0.516,0.079c-0.198,0.04-0.396,0.04-0.556,0.04
		c-2.658,0-4.522-1.944-4.522-5.237c0-4.166,2.658-8.807,6.467-8.807c2.697,0,4.086,2.142,4.086,5.276
		c0,0.516-0.396,0.913-0.912,0.913c-0.477,0-0.794-0.397-0.794-0.913c0-1.23-0.516-3.65-2.38-3.65
		C231.486,64.406,229.503,68.334,229.503,71.587z M234.225,74.88c1.031-0.516,1.666-1.706,1.666-2.618
		c0-0.437-0.159-0.992-0.675-0.992c-0.635,0-1.27,1.032-1.27,2.143C233.946,73.849,234.025,74.404,234.225,74.88z"/>
</g>
<text transform="matrix(1 0 0 1 49.0547 304.2021)" fill="#754C29" font-family="'Avenir-Light'" font-size="12.5635">Amena Manji</text>
<g>
	
		<ellipse fill="#EC008C" stroke="#231F20" stroke-width="0.09" stroke-miterlimit="10" cx="224.599" cy="179.981" rx="3.677" ry="2.862"/>
	<path fill="#EC008C" stroke="#231F20" stroke-width="0.09" stroke-miterlimit="10" d="M224.294,181.33
		c0,1.581-1.647,2.862-3.678,2.862s-3.678-1.281-3.678-2.862c0-1.584,1.647-2.865,3.678-2.865S224.294,179.746,224.294,181.33z"/>
	
		<ellipse fill="#EC008C" stroke="#231F20" stroke-width="0.09" stroke-miterlimit="10" cx="219.777" cy="184.082" rx="3.678" ry="2.862"/>
	
		<ellipse fill="#EC008C" stroke="#231F20" stroke-width="0.09" stroke-miterlimit="10" cx="222.617" cy="185.93" rx="3.678" ry="2.861"/>
	
		<ellipse fill="#EC008C" stroke="#231F20" stroke-width="0.09" stroke-miterlimit="10" cx="226.79" cy="185.279" rx="3.678" ry="2.86"/>
	
		<ellipse fill="#EC008C" stroke="#231F20" stroke-width="0.09" stroke-miterlimit="10" cx="227.209" cy="181.808" rx="3.678" ry="2.861"/>
	
		<ellipse fill="#231F20" stroke="#231F20" stroke-width="0.0738" stroke-miterlimit="10" cx="224.065" cy="182.608" rx="3.143" ry="2.254"/>
</g>
<g>
	
		<ellipse fill="#EC008C" stroke="#231F20" stroke-width="0.09" stroke-miterlimit="10" cx="82.768" cy="19.011" rx="3.677" ry="2.863"/>
	
		<ellipse fill="#EC008C" stroke="#231F20" stroke-width="0.09" stroke-miterlimit="10" cx="78.785" cy="20.36" rx="3.678" ry="2.863"/>
	
		<ellipse fill="#EC008C" stroke="#231F20" stroke-width="0.09" stroke-miterlimit="10" cx="77.946" cy="23.112" rx="3.677" ry="2.862"/>
	
		<ellipse fill="#EC008C" stroke="#231F20" stroke-width="0.09" stroke-miterlimit="10" cx="80.786" cy="24.959" rx="3.678" ry="2.862"/>
	
		<ellipse fill="#EC008C" stroke="#231F20" stroke-width="0.09" stroke-miterlimit="10" cx="84.958" cy="24.31" rx="3.677" ry="2.861"/>
	
		<ellipse fill="#EC008C" stroke="#231F20" stroke-width="0.09" stroke-miterlimit="10" cx="85.377" cy="20.837" rx="3.678" ry="2.862"/>
	
		<ellipse fill="#231F20" stroke="#231F20" stroke-width="0.0738" stroke-miterlimit="10" cx="82.234" cy="21.638" rx="3.143" ry="2.254"/>
</g>
</svg>
